# xmcd
#
# Track frame offsets: 
#        150
#        28876
#        50622
#        69630
#        100111
#        125153
#        142183
#        156340
#        176546
#
# Disc length: 2452 seconds
#
# Revision: 1
# Processed by: cddbd v1.5.2PL0 Copyright (c) Steve Scherf et al.
# Submitted via: ExactAudioCopy v1.3
#
DISCID=88099209
DTITLE=Nancy Wilson - Take My Love
DYEAR=1980
DGENRE=Soul
TTITLE0=Take My Love
TTITLE1=Someone Else
TTITLE2=Welcome Home
TTITLE3=The Sadness In My Eyes
TTITLE4=Let's Hold On To Love
TTITLE5=I Loved You All The Time
TTITLE6=Not Afraid To Love (Live)
TTITLE7=I'm Coming Home (Live)
TTITLE8=Bows (Live)
EXTD=
EXTT0=
EXTT1=
EXTT2=
EXTT3=
EXTT4=
EXTT5=
EXTT6=
EXTT7=
EXTT8=
PLAYORDER=
